<svg width="458" height="59" viewBox="0 0 458 59" fill="none" xmlns="http://www.w3.org/2000/svg">
<path d="M0.94 49.9L23.468 8.452H32.532L10.004 49.9H0.94ZM16.8384 49.9L39.3664 8.452H48.4304L25.9024 49.9H16.8384Z" fill="#D12F28"/>
<path d="M54.288 28.52H70.464L69.168 34.76H53.04L54.288 28.52ZM51.216 47H43.392L50.112 13.4H75.504L74.208 19.64H56.64L51.216 47ZM91.1441 47.576C87.7521 47.576 84.8241 46.968 82.3601 45.752C79.9281 44.504 78.0561 42.792 76.7441 40.616C75.4321 38.408 74.7761 35.864 74.7761 32.984C74.7761 30.104 75.2721 27.448 76.2641 25.016C77.2561 22.552 78.6641 20.424 80.4881 18.632C82.3441 16.808 84.5361 15.384 87.0641 14.36C89.6241 13.336 92.4561 12.824 95.5601 12.824C98.9521 12.824 101.864 13.448 104.296 14.696C106.76 15.912 108.648 17.624 109.96 19.832C111.272 22.008 111.928 24.536 111.928 27.416C111.928 30.296 111.432 32.968 110.44 35.432C109.448 37.864 108.024 39.992 106.168 41.816C104.344 43.608 102.152 45.016 99.5921 46.04C97.0641 47.064 94.2481 47.576 91.1441 47.576ZM91.8161 40.952C93.7041 40.952 95.4001 40.616 96.9041 39.944C98.4401 39.24 99.7361 38.28 100.792 37.064C101.848 35.848 102.648 34.456 103.192 32.888C103.768 31.288 104.056 29.608 104.056 27.848C104.056 26.184 103.704 24.728 103 23.48C102.296 22.2 101.256 21.208 99.8801 20.504C98.5361 19.8 96.8721 19.448 94.8881 19.448C93.0001 19.448 91.3041 19.8 89.8001 20.504C88.2961 21.176 87.0001 22.12 85.9121 23.336C84.8561 24.552 84.0401 25.96 83.4641 27.56C82.9201 29.128 82.6481 30.792 82.6481 32.552C82.6481 34.216 83.0001 35.688 83.7041 36.968C84.4401 38.216 85.4801 39.192 86.8241 39.896C88.2001 40.6 89.8641 40.952 91.8161 40.952ZM114.22 47L120.94 13.4H134.62C138.812 13.4 142.044 14.312 144.316 16.136C146.62 17.96 147.772 20.52 147.772 23.816C147.772 26.632 147.1 29.08 145.756 31.16C144.444 33.208 142.556 34.792 140.092 35.912C137.66 37.032 134.78 37.592 131.452 37.592H120.508L124.588 34.184L122.044 47H114.22ZM135.82 47L128.956 34.808H137.116L144.028 47H135.82ZM124.396 35.096L121.708 31.4H131.74C134.332 31.4 136.332 30.824 137.74 29.672C139.18 28.488 139.9 26.776 139.9 24.536C139.9 22.904 139.34 21.704 138.22 20.936C137.132 20.136 135.596 19.736 133.612 19.736H124.156L128.236 15.944L124.396 35.096ZM149.517 47L156.237 13.4H162.573L172.125 37.208L168.765 37.16L187.389 13.4H194.061L187.389 47H180.093L184.557 24.488H186.045L171.213 43.448H167.757L159.837 24.44L161.277 24.584L156.813 47H149.517ZM211.201 47.576C207.937 47.576 205.217 46.936 203.041 45.656C200.865 44.376 199.329 42.6 198.433 40.328C197.569 38.024 197.441 35.32 198.049 32.216L201.793 13.4H209.617L205.873 32.072C205.585 33.576 205.505 34.888 205.633 36.008C205.761 37.128 206.081 38.056 206.593 38.792C207.137 39.528 207.873 40.072 208.801 40.424C209.729 40.776 210.817 40.952 212.065 40.952C213.633 40.952 214.993 40.648 216.145 40.04C217.297 39.432 218.257 38.472 219.025 37.16C219.793 35.848 220.385 34.152 220.801 32.072L224.545 13.4H232.177L228.385 32.552C227.393 37.512 225.457 41.256 222.577 43.784C219.697 46.312 215.905 47.576 211.201 47.576ZM233.189 47L239.909 13.4H247.733L242.261 40.664H259.109L257.813 47H233.189ZM257.929 47L279.625 13.4H287.353L295.609 47H287.833L281.305 17.24H284.377L266.233 47H257.929ZM266.905 39.8L270.073 33.896H287.401L288.313 39.8H266.905ZM330.353 47.576C326.961 47.576 324.017 46.968 321.521 45.752C319.057 44.504 317.137 42.792 315.761 40.616C314.417 38.408 313.745 35.864 313.745 32.984C313.745 30.136 314.241 27.48 315.233 25.016C316.257 22.552 317.697 20.424 319.553 18.632C321.409 16.808 323.633 15.384 326.225 14.36C328.817 13.336 331.697 12.824 334.865 12.824C338.065 12.824 340.833 13.336 343.169 14.36C345.537 15.352 347.441 16.792 348.881 18.68L343.313 23.192C342.193 21.848 340.913 20.888 339.473 20.312C338.065 19.736 336.417 19.448 334.529 19.448C332.545 19.448 330.753 19.784 329.153 20.456C327.585 21.096 326.241 22.008 325.121 23.192C324.001 24.376 323.137 25.768 322.529 27.368C321.921 28.936 321.617 30.648 321.617 32.504C321.617 34.2 321.985 35.688 322.721 36.968C323.457 38.216 324.545 39.192 325.985 39.896C327.457 40.6 329.249 40.952 331.361 40.952C332.961 40.952 334.497 40.68 335.969 40.136C337.441 39.592 338.865 38.744 340.241 37.592L343.217 43.496C341.521 44.808 339.553 45.816 337.313 46.52C335.105 47.224 332.785 47.576 330.353 47.576ZM336.401 42.296L338.897 29.672H346.001L343.217 43.496L336.401 42.296ZM349.72 47L356.44 13.4H370.12C374.312 13.4 377.544 14.312 379.816 16.136C382.12 17.96 383.272 20.52 383.272 23.816C383.272 26.632 382.6 29.08 381.256 31.16C379.944 33.208 378.056 34.792 375.592 35.912C373.16 37.032 370.28 37.592 366.952 37.592H356.008L360.088 34.184L357.544 47H349.72ZM371.32 47L364.456 34.808H372.616L379.528 47H371.32ZM359.896 35.096L357.208 31.4H367.24C369.832 31.4 371.832 30.824 373.24 29.672C374.68 28.488 375.4 26.776 375.4 24.536C375.4 22.904 374.84 21.704 373.72 20.936C372.632 20.136 371.096 19.736 369.112 19.736H359.656L363.736 15.944L359.896 35.096ZM385.017 47L391.737 13.4H399.561L392.841 47H385.017ZM400.767 47L407.487 13.4H415.311L409.839 40.664H426.687L425.391 47H400.767ZM429.736 47L436.456 13.4H444.28L438.808 40.664H455.656L454.36 47H429.736Z" fill="#EBD9D9"/>
</svg>
