<svg width="375" height="118" viewBox="0 0 375 118" fill="none" xmlns="http://www.w3.org/2000/svg">
<path d="M0.96 103.1L50.112 12.668H69.888L20.736 103.1H0.96ZM35.6475 103.1L84.7995 12.668H104.576L55.4235 103.1H35.6475Z" fill="#D12F28"/>
<path d="M133.288 28.52H149.464L148.168 34.76H132.04L133.288 28.52ZM130.216 47H122.392L129.112 13.4H154.504L153.208 19.64H135.64L130.216 47ZM170.144 47.576C166.752 47.576 163.824 46.968 161.36 45.752C158.928 44.504 157.056 42.792 155.744 40.616C154.432 38.408 153.776 35.864 153.776 32.984C153.776 30.104 154.272 27.448 155.264 25.016C156.256 22.552 157.664 20.424 159.488 18.632C161.344 16.808 163.536 15.384 166.064 14.36C168.624 13.336 171.456 12.824 174.56 12.824C177.952 12.824 180.864 13.448 183.296 14.696C185.76 15.912 187.648 17.624 188.96 19.832C190.272 22.008 190.928 24.536 190.928 27.416C190.928 30.296 190.432 32.968 189.44 35.432C188.448 37.864 187.024 39.992 185.168 41.816C183.344 43.608 181.152 45.016 178.592 46.04C176.064 47.064 173.248 47.576 170.144 47.576ZM170.816 40.952C172.704 40.952 174.4 40.616 175.904 39.944C177.44 39.24 178.736 38.28 179.792 37.064C180.848 35.848 181.648 34.456 182.192 32.888C182.768 31.288 183.056 29.608 183.056 27.848C183.056 26.184 182.704 24.728 182 23.48C181.296 22.2 180.256 21.208 178.88 20.504C177.536 19.8 175.872 19.448 173.888 19.448C172 19.448 170.304 19.8 168.8 20.504C167.296 21.176 166 22.12 164.912 23.336C163.856 24.552 163.04 25.96 162.464 27.56C161.92 29.128 161.648 30.792 161.648 32.552C161.648 34.216 162 35.688 162.704 36.968C163.44 38.216 164.48 39.192 165.824 39.896C167.2 40.6 168.864 40.952 170.816 40.952ZM193.22 47L199.94 13.4H213.62C217.812 13.4 221.044 14.312 223.316 16.136C225.62 17.96 226.772 20.52 226.772 23.816C226.772 26.632 226.1 29.08 224.756 31.16C223.444 33.208 221.556 34.792 219.092 35.912C216.66 37.032 213.78 37.592 210.452 37.592H199.508L203.588 34.184L201.044 47H193.22ZM214.82 47L207.956 34.808H216.116L223.028 47H214.82ZM203.396 35.096L200.708 31.4H210.74C213.332 31.4 215.332 30.824 216.74 29.672C218.18 28.488 218.9 26.776 218.9 24.536C218.9 22.904 218.34 21.704 217.22 20.936C216.132 20.136 214.596 19.736 212.612 19.736H203.156L207.236 15.944L203.396 35.096ZM228.517 47L235.237 13.4H241.573L251.125 37.208L247.765 37.16L266.389 13.4H273.061L266.389 47H259.093L263.557 24.488H265.045L250.213 43.448H246.757L238.837 24.44L240.277 24.584L235.813 47H228.517ZM290.201 47.576C286.937 47.576 284.217 46.936 282.041 45.656C279.865 44.376 278.329 42.6 277.433 40.328C276.569 38.024 276.441 35.32 277.049 32.216L280.793 13.4H288.617L284.873 32.072C284.585 33.576 284.505 34.888 284.633 36.008C284.761 37.128 285.081 38.056 285.593 38.792C286.137 39.528 286.873 40.072 287.801 40.424C288.729 40.776 289.817 40.952 291.065 40.952C292.633 40.952 293.993 40.648 295.145 40.04C296.297 39.432 297.257 38.472 298.025 37.16C298.793 35.848 299.385 34.152 299.801 32.072L303.545 13.4H311.177L307.385 32.552C306.393 37.512 304.457 41.256 301.577 43.784C298.697 46.312 294.905 47.576 290.201 47.576ZM312.189 47L318.909 13.4H326.733L321.261 40.664H338.109L336.813 47H312.189ZM336.929 47L358.625 13.4H366.353L374.609 47H366.833L360.305 17.24H363.377L345.233 47H336.929ZM345.905 39.8L349.073 33.896H366.401L367.313 39.8H345.905ZM140.056 106.576C136.664 106.576 133.72 105.968 131.224 104.752C128.76 103.504 126.84 101.792 125.464 99.616C124.12 97.408 123.448 94.864 123.448 91.984C123.448 89.136 123.944 86.48 124.936 84.016C125.96 81.552 127.4 79.424 129.256 77.632C131.112 75.808 133.336 74.384 135.928 73.36C138.52 72.336 141.4 71.824 144.568 71.824C147.768 71.824 150.536 72.336 152.872 73.36C155.24 74.352 157.144 75.792 158.584 77.68L153.016 82.192C151.896 80.848 150.616 79.888 149.176 79.312C147.768 78.736 146.12 78.448 144.232 78.448C142.248 78.448 140.456 78.784 138.856 79.456C137.288 80.096 135.944 81.008 134.824 82.192C133.704 83.376 132.84 84.768 132.232 86.368C131.624 87.936 131.32 89.648 131.32 91.504C131.32 93.2 131.688 94.688 132.424 95.968C133.16 97.216 134.248 98.192 135.688 98.896C137.16 99.6 138.952 99.952 141.064 99.952C142.664 99.952 144.2 99.68 145.672 99.136C147.144 98.592 148.568 97.744 149.944 96.592L152.92 102.496C151.224 103.808 149.256 104.816 147.016 105.52C144.808 106.224 142.488 106.576 140.056 106.576ZM146.104 101.296L148.6 88.672H155.704L152.92 102.496L146.104 101.296ZM159.423 106L166.143 72.4H179.823C184.015 72.4 187.247 73.312 189.519 75.136C191.823 76.96 192.975 79.52 192.975 82.816C192.975 85.632 192.303 88.08 190.959 90.16C189.647 92.208 187.759 93.792 185.295 94.912C182.863 96.032 179.983 96.592 176.655 96.592H165.711L169.791 93.184L167.247 106H159.423ZM181.023 106L174.159 93.808H182.319L189.231 106H181.023ZM169.599 94.096L166.911 90.4H176.943C179.535 90.4 181.535 89.824 182.943 88.672C184.383 87.488 185.103 85.776 185.103 83.536C185.103 81.904 184.543 80.704 183.423 79.936C182.335 79.136 180.799 78.736 178.815 78.736H169.359L173.439 74.944L169.599 94.096ZM194.72 106L201.44 72.4H209.264L202.544 106H194.72ZM210.47 106L217.19 72.4H225.014L219.542 99.664H236.39L235.094 106H210.47ZM239.439 106L246.159 72.4H253.983L248.511 99.664H265.359L264.063 106H239.439Z" fill="#EBD9D9"/>
</svg>
